    <svg width="420" height="420" viewBox="0 0 420 420" fill="none" xmlns="http://www.w3.org/2000/svg">
<path fill-rule="evenodd" clip-rule="evenodd" d="M387.494 74.0471H260.504V178.405C260.504 188.223 268.476 196.194 278.293 196.194H369.705C379.523 196.194 387.494 188.223 387.494 178.405V74.0471ZM323.999 91.3418C302.438 91.3418 284.932 108.847 284.932 130.409C284.932 151.971 302.438 169.476 323.999 169.476C345.561 169.476 363.067 151.971 363.067 130.409C363.067 108.847 345.561 91.3418 323.999 91.3418Z" fill="#26ABFF"/>
<path fill-rule="evenodd" clip-rule="evenodd" d="M324.002 96.8485C342.524 96.8485 357.562 111.886 357.562 130.409C357.562 148.931 342.524 163.969 324.002 163.969C305.479 163.969 290.442 148.931 290.442 130.409C290.442 111.886 305.479 96.8485 324.002 96.8485ZM353.358 130.409C353.358 146.611 340.204 159.765 324.002 159.765C307.799 159.765 294.645 146.611 294.645 130.409C294.645 130.409 302.846 126.804 306.36 126.307C309.473 125.867 312.83 126.203 315.726 127.429C319.976 129.229 326.455 136.268 331.864 137.107C340.556 138.454 346.019 126.315 353.358 130.409Z" fill="url(#paint0_linear_1_7)"/>
<path fill-rule="evenodd" clip-rule="evenodd" d="M260.504 70.2376H387.495V59.595C387.495 49.7768 379.522 41.8064 369.706 41.8064H278.293C268.475 41.8064 260.504 49.7768 260.504 59.595V70.2376ZM349.486 51.7443C351.873 51.7443 353.809 53.6819 353.809 56.0669C353.809 58.4519 351.873 60.3877 349.486 60.3877C347.101 60.3877 345.166 58.4519 345.166 56.0669C345.166 53.6819 347.101 51.7443 349.486 51.7443ZM365.825 51.7443C368.21 51.7443 370.148 53.6819 370.148 56.0669C370.148 58.4519 368.21 60.3877 365.825 60.3877C363.44 60.3877 361.505 58.4519 361.505 56.0669C361.505 53.6819 363.44 51.7443 365.825 51.7443ZM311.595 54.3248H273.118V57.7209H311.595V54.3248Z" fill="url(#paint1_linear_1_7)"/>
<path d="M102.701 303.691C164.031 363.066 261.449 361.929 320.289 301.15C338.14 282.712 350.389 260.903 357.08 237.807C351.952 266.699 338.487 294.365 316.607 316.966C257.767 377.744 160.349 378.882 99.0179 319.507C56.293 278.145 42.3516 218.328 57.7169 165.294C49.054 214.096 64.1765 266.396 102.701 303.691Z" fill="#F1FFF0"/>
<rect x="58" y="231" width="66" height="5" fill="url(#paint2_linear_1_7)"/>
<path d="M68.2629 116.036C66.9073 116.48 60.2215 120.11 55.1186 121.975C52.2442 123.537 47.704 125.585 42.3903 134.583C43.3879 138.007 48.6284 144.637 53.9929 146.104C54.8399 145.284 55.7448 144.619 56.3114 144.267C64.8582 166.265 58.9042 177.01 55.3113 193.886C63.7199 197.725 73.9286 198.905 80.7925 198.756C87.6564 198.607 99.3903 196.694 106.038 192.784C101.716 176.081 95.3015 165.604 102.885 143.256C103.467 143.583 104.399 144.207 105.281 144.99C110.577 143.292 115.525 136.441 116.373 132.977C110.673 124.218 106.049 122.369 103.109 120.933C97.9302 119.292 91.0933 115.955 89.7196 115.57C88.6627 115.892 84.4266 118.011 79.0779 118.127L79.0779 118.125C79.0658 118.126 79.0537 118.126 79.0416 118.127C79.0295 118.127 79.0175 118.127 79.0053 118.127L79.0054 118.129C73.6567 118.245 69.3326 116.311 68.2627 116.036L68.2629 116.036Z" fill="url(#paint3_linear_1_7)"/>
<path d="M75.3646 124.917H95.7292L95.9688 124.677H96.2083L96.4479 124.437L96.6875 124.198V123.719L96.9271 123.479L96.6875 123.24V123H96.4479L95.9688 122.76L95.7292 122.521L94.7708 122.281L93.5729 121.562L91.8958 121.083L89.9792 120.125L87.8229 119.167L85.9063 117.969L84.2292 116.771H83.9896L83.75 116.531L83.2708 116.292L82.5521 116.052L81.8333 115.812L80.875 115.573H79.6771L78.7188 115.333H78L77.5208 109.344H82.0729L82.5521 110.302L83.2708 111.26L83.9896 112.219L84.9479 113.177L85.6667 113.896L86.625 114.854L87.3438 115.573L88.5417 116.292L89.7396 117.25L91.4167 118.208L93.0938 118.927L95.0104 119.885L96.9271 120.604L98.3646 121.323L99.3229 121.562L99.8021 121.802L100.042 122.042V122.281L100.281 122.521L100.521 122.76L100.76 123V123.24L101 123.479V123.958L100.76 124.437V124.917L100.521 125.156L100.042 125.635L99.5625 125.875L99.0833 126.115L98.6042 126.354H74.6458L75.3646 124.917Z" fill="#47B9FF"/>
<path d="M80.875 102.635V102.156L80.6354 101.677L80.3958 101.198L80.1563 100.719L79.6771 100.479L79.4375 100.24H78.7188L78.4792 100L77.7604 100.24H77.0417L76.5625 100.479L76.3229 100.719L75.8438 101.198L75.6042 101.677V102.156L75.3646 102.635V102.875L75.6042 103.115V103.594L75.8438 103.833V104.073L76.0833 104.312L76.3229 104.552L76.5625 104.792L76.8021 105.031L77.2813 105.75L77.5208 106.469L77.7604 107.427L78 108.625V110.062" stroke="#47B9FF" stroke-width="0.479167"/>
<path d="M78.4792 114.615H79.1979L79.4375 114.375H80.1563L80.3958 114.135H80.6354L80.875 113.896H81.1146L81.5938 113.656L81.8333 113.417H82.0729V113.177L82.3125 112.937V112.458L82.5521 112.219L82.3125 111.979V111.5L82.0729 111.26L81.8333 111.021L81.5938 110.781L81.1146 110.542H77.5208" stroke="white" stroke-width="0.479167"/>
<path d="M80.6354 124.917H60.2708L59.7917 124.677H59.5521L59.3125 124.437L59.0729 124.198V123H59.5521V122.76H59.7917L60.2708 122.521L60.9896 122.281L62.4271 121.562L64.1042 121.083L66.0208 120.125L67.9375 119.167L69.8542 117.969L71.7708 116.771L72.0104 116.531L72.4896 116.292L73.2083 116.052L73.9271 115.812L75.125 115.573H76.0833L77.2812 115.333H78L78.4792 109.344H73.6875L73.2083 110.302L72.4896 111.26L71.7708 112.219L71.0521 113.177L70.3333 113.896L69.375 114.854L68.4167 115.573L67.6979 116.292L66.5 117.25L64.8229 118.208L62.9062 118.927L60.9896 119.885L59.3125 120.604L57.875 121.323L56.6771 121.562L56.4375 121.802L55.9583 122.042L55.7187 122.281L55.4792 122.521L55.2396 122.76V123L55 123.24V124.437L55.2396 124.917L55.4792 125.156L55.7187 125.635L56.1979 125.875L56.6771 126.115L57.1562 126.354H81.3542L80.6354 124.917Z" fill="#47B9FF"/>
<path d="M78.4792 114.615H77.5208L77.0417 114.375H76.3229L76.0833 114.135H75.6042L75.3646 113.896H75.125L74.8854 113.656L74.6458 113.417H74.4063L74.1667 113.177V112.937L73.9271 112.458V111.979L74.1667 111.5L74.4063 111.26L74.6458 111.021L74.8854 110.781L75.125 110.542H79.1979" stroke="white" stroke-width="0.479167"/>
<path d="M68.2629 116.036C66.9073 116.48 60.2215 120.11 55.1186 121.975C52.2442 123.537 47.704 125.586 42.3903 134.583C43.3879 138.007 48.6284 144.637 53.9929 146.104C54.8399 145.284 55.7448 144.619 56.3114 144.267C64.8582 166.265 58.9042 177.01 55.3113 193.886C63.7199 197.725 73.9286 198.905 80.7925 198.756C87.6564 198.607 99.3903 196.694 106.038 192.784C101.716 176.081 95.3015 165.604 102.885 143.256C103.467 143.583 104.399 144.207 105.281 144.99C110.577 143.292 115.525 136.441 116.373 132.977C110.673 124.218 106.049 122.369 103.109 120.933C97.9302 119.292 91.0933 115.955 89.7196 115.57C88.3305 118.632 79.9076 133.363 79.3726 133.374C78.8376 133.386 68.6082 118.659 68.2629 116.036Z" fill="url(#paint4_linear_1_7)"/>
<path d="M128.956 155.477L31.2283 148.962C34.6406 158.224 39.4094 187.638 42.5692 209.515C57.5679 209.26 92.0878 208.902 110.177 209.515C128.266 210.128 126.273 209.515 128.956 203.383C130.617 196.612 134.628 180.158 137.387 168.508C140.147 156.857 132.916 154.966 128.956 155.477Z" fill="#4F00F5"/>
<path d="M9 138.614C14.6209 137.209 26.9359 137.311 31.2283 148.962M31.2283 148.962L128.956 155.477C132.916 154.966 140.147 156.857 137.388 168.508C134.628 180.158 130.617 196.612 128.956 203.383C126.273 209.515 128.266 210.128 110.177 209.515C92.0878 208.902 57.5679 209.26 42.5692 209.515M31.2283 148.962C34.6406 158.224 39.4094 187.638 42.5692 209.515M44.6419 224.462C44.0919 220.297 43.384 215.157 42.5692 209.515" stroke="url(#paint5_linear_1_7)" stroke-width="3.83246"/>
<rect x="51.9236" y="169.426" width="60.5529" height="4.59896" rx="2.29948" fill="white"/>
<rect x="52.2827" y="187.145" width="60.5529" height="5.7376" rx="2.8688" transform="rotate(6.40982 52.2827 187.145)" fill="white"/>
<path d="M145.071 21.1845C141.27 28.3979 138.5 300.704 138.5 300.704H161.855L181.181 141.061C188.783 144.862 187 146 208.479 152.329C225 156.5 246.267 155.299 266.292 142.962C321.819 108.753 298.129 39.218 262.903 21.1845C237.54 8.20036 211.5 6.99999 194.5 7.99999C177.5 8.99999 148.872 13.9711 145.071 21.1845Z" fill="url(#paint6_linear_1_7)" stroke="white" stroke-width="3.80102"/>
<path d="M284.518 88.5074C283.294 102.777 274.199 116.044 261.004 125.398C247.816 134.746 230.635 140.107 213.434 138.632C196.436 137.174 186.624 127.157 181.319 113.803C175.99 100.387 175.247 83.6571 176.496 69.0855C177.746 54.5174 181.186 42.8381 188.196 35.1434C195.156 27.5026 205.805 23.6148 221.915 24.9963C260.215 28.281 286.973 59.8756 284.518 88.5074Z" stroke="white" stroke-width="2"/>
<path d="M153.922 236.047C103.749 251.251 40.5251 220.843 13.2844 198.037C8.84991 200.571 -0.0190678 220.843 20.8865 243.649C50.1993 275.627 115.945 358.914 199.534 344.376C286.958 329.172 399.088 228.445 408.591 177.131C364.879 169.529 305.963 163.828 250.848 190.435C225.176 202.829 216.639 217.042 153.922 236.047Z" fill="url(#paint7_linear_1_7)"/>
<ellipse cx="292.717" cy="213.12" rx="17.1046" ry="20.9056" fill="url(#paint8_linear_1_7)"/>
<ellipse cx="247.105" cy="221.265" rx="17.1046" ry="20.9056" fill="url(#paint9_linear_1_7)"/>
<ellipse cx="269.911" cy="202.26" rx="17.1046" ry="20.9056" fill="url(#paint10_linear_1_7)"/>
<ellipse cx="287.015" cy="175.653" rx="26.6071" ry="24.7066" fill="url(#paint11_linear_1_7)"/>
<ellipse cx="321.224" cy="190.857" rx="26.6071" ry="24.7066" fill="url(#paint12_linear_1_7)"/>
<ellipse cx="344.031" cy="179.454" rx="19.0051" ry="17.6476" fill="url(#paint13_linear_1_7)"/>
<ellipse cx="370.638" cy="172.395" rx="19.0051" ry="17.6476" fill="url(#paint14_linear_1_7)"/>
<ellipse cx="393.444" cy="176.196" rx="11.4031" ry="10.5886" fill="url(#paint15_linear_1_7)"/>
<ellipse cx="288.916" cy="206.061" rx="9.50255" ry="11.6142" fill="url(#paint16_linear_1_7)"/>
<ellipse cx="309.821" cy="142.53" rx="3.80102" ry="3.52952" fill="url(#paint17_linear_1_7)"/>
<ellipse cx="292.717" cy="216.921" rx="17.1046" ry="20.9056" fill="url(#paint18_linear_1_7)"/>
<ellipse cx="247.105" cy="225.066" rx="17.1046" ry="20.9056" fill="url(#paint19_linear_1_7)"/>
<ellipse cx="269.911" cy="206.061" rx="17.1046" ry="20.9056" fill="url(#paint20_linear_1_7)"/>
<ellipse cx="287.015" cy="179.454" rx="26.6071" ry="24.7066" fill="url(#paint21_linear_1_7)"/>
<ellipse cx="321.224" cy="194.658" rx="26.6071" ry="24.7066" fill="url(#paint22_linear_1_7)"/>
<ellipse cx="344.031" cy="183.255" rx="19.0051" ry="17.6476" fill="url(#paint23_linear_1_7)"/>
<ellipse cx="370.638" cy="176.196" rx="19.0051" ry="17.6476" fill="url(#paint24_linear_1_7)"/>
<ellipse cx="393.444" cy="179.997" rx="11.4031" ry="10.5886" fill="url(#paint25_linear_1_7)"/>
<ellipse cx="288.916" cy="209.862" rx="9.50255" ry="11.6142" fill="url(#paint26_linear_1_7)"/>
<ellipse cx="309.821" cy="146.331" rx="3.80102" ry="3.52952" fill="url(#paint27_linear_1_7)"/>
<path d="M298.361 190.435C218.977 205.556 106.409 342.476 7.58288 215.142C-13.3228 323.471 163.425 405.193 264.152 365.282C361.231 326.817 419.994 239.848 402.889 190.435C431.397 190.435 378.182 175.231 298.361 190.435Z" fill="#0F3B64"/>
<path d="M312.357 298.256L206.887 150.564C191.5 147.5 186.699 142.222 180.28 139.161C197.516 189.9 243.36 296.978 275.753 311.773C308.147 326.569 313.653 308.927 312.357 298.256Z" fill="url(#paint28_linear_1_7)" stroke="white" stroke-width="2"/>
<path d="M145 234.222C145 240.398 139.682 245.5 133 245.5C126.318 245.5 121 240.398 121 234.222C121 228.047 126.318 222.944 133 222.944C139.682 222.944 145 228.047 145 234.222Z" fill="#4340CE" stroke="white" stroke-width="2"/>
<path d="M191.1 370.728C310.2 370.472 406.545 275.059 406.292 157.617C406.216 121.988 397.258 88.4254 381.488 58.961C404.458 92.6821 417.897 133.251 417.991 176.923C418.243 294.365 321.899 389.779 202.798 390.035C119.83 390.213 19.2837 321.697 14.0325 273.464C47.8417 324.651 116.289 370.889 191.1 370.728Z" fill="#6651E8"/>
<defs>
<linearGradient id="paint0_linear_1_7" x1="290.442" y1="-10.5435" x2="354.537" y2="-9.91697" gradientUnits="userSpaceOnUse">
<stop stop-color="#02FFFF"/>
<stop offset="1" stop-color="#374BFF"/>
</linearGradient>
<linearGradient id="paint1_linear_1_7" x1="260.504" y1="-3.68349" x2="381.554" y2="1.60169" gradientUnits="userSpaceOnUse">
<stop stop-color="#02FFFF"/>
<stop offset="1" stop-color="#374BFF"/>
</linearGradient>
<linearGradient id="paint2_linear_1_7" x1="58" y1="223" x2="120" y2="231" gradientUnits="userSpaceOnUse">
<stop stop-color="#02FFFF"/>
<stop offset="1" stop-color="#374BFF"/>
</linearGradient>
<linearGradient id="paint3_linear_1_7" x1="39.1181" y1="-16.1171" x2="109.782" y2="-17.0353" gradientUnits="userSpaceOnUse">
<stop stop-color="#02FFFF"/>
<stop offset="1" stop-color="#374BFF"/>
</linearGradient>
<linearGradient id="paint4_linear_1_7" x1="104.677" y1="196.726" x2="56.0272" y2="119.12" gradientUnits="userSpaceOnUse">
<stop stop-color="#308BF6"/>
<stop offset="1" stop-color="#8CFEF7"/>
</linearGradient>
<linearGradient id="paint5_linear_1_7" x1="73.5" y1="138" x2="73.5" y2="224.462" gradientUnits="userSpaceOnUse">
<stop stop-color="#00FFF0"/>
<stop offset="1" stop-color="#0500FE" stop-opacity="0.75"/>
</linearGradient>
<linearGradient id="paint6_linear_1_7" x1="207.788" y1="47.9362" x2="222.992" y2="300.704" gradientUnits="userSpaceOnUse">
<stop stop-color="#0357A5"/>
<stop offset="1" stop-color="#00C2FF"/>
</linearGradient>
<linearGradient id="paint7_linear_1_7" x1="-11.4221" y1="211.341" x2="448.501" y2="194.236" gradientUnits="userSpaceOnUse">
<stop stop-color="#00FFFF"/>
<stop offset="1" stop-color="#5200FF"/>
</linearGradient>
<linearGradient id="paint8_linear_1_7" x1="273.009" y1="206.848" x2="311.216" y2="205.04" gradientUnits="userSpaceOnUse">
<stop stop-color="#4976EA"/>
<stop offset="1" stop-color="#10E2FF"/>
</linearGradient>
<linearGradient id="paint9_linear_1_7" x1="227.397" y1="214.993" x2="265.604" y2="213.185" gradientUnits="userSpaceOnUse">
<stop stop-color="#4976EA"/>
<stop offset="1" stop-color="#10E2FF"/>
</linearGradient>
<linearGradient id="paint10_linear_1_7" x1="250.203" y1="195.988" x2="288.41" y2="194.18" gradientUnits="userSpaceOnUse">
<stop stop-color="#4976EA"/>
<stop offset="1" stop-color="#10E2FF"/>
</linearGradient>
<linearGradient id="paint11_linear_1_7" x1="256.359" y1="168.241" x2="315.694" y2="164.544" gradientUnits="userSpaceOnUse">
<stop stop-color="#4976EA"/>
<stop offset="1" stop-color="#10E2FF"/>
</linearGradient>
<linearGradient id="paint12_linear_1_7" x1="290.568" y1="183.445" x2="349.904" y2="179.748" gradientUnits="userSpaceOnUse">
<stop stop-color="#4976EA"/>
<stop offset="1" stop-color="#10E2FF"/>
</linearGradient>
<linearGradient id="paint13_linear_1_7" x1="322.133" y1="174.159" x2="364.516" y2="171.519" gradientUnits="userSpaceOnUse">
<stop stop-color="#4976EA"/>
<stop offset="1" stop-color="#10E2FF"/>
</linearGradient>
<linearGradient id="paint14_linear_1_7" x1="348.741" y1="167.1" x2="391.123" y2="164.46" gradientUnits="userSpaceOnUse">
<stop stop-color="#4976EA"/>
<stop offset="1" stop-color="#10E2FF"/>
</linearGradient>
<linearGradient id="paint15_linear_1_7" x1="380.306" y1="173.019" x2="405.735" y2="171.435" gradientUnits="userSpaceOnUse">
<stop stop-color="#4976EA"/>
<stop offset="1" stop-color="#10E2FF"/>
</linearGradient>
<linearGradient id="paint16_linear_1_7" x1="277.967" y1="202.577" x2="299.193" y2="201.572" gradientUnits="userSpaceOnUse">
<stop stop-color="#4976EA"/>
<stop offset="1" stop-color="#10E2FF"/>
</linearGradient>
<linearGradient id="paint17_linear_1_7" x1="305.442" y1="141.471" x2="313.918" y2="140.943" gradientUnits="userSpaceOnUse">
<stop stop-color="#4976EA"/>
<stop offset="1" stop-color="#10E2FF"/>
</linearGradient>
<linearGradient id="paint18_linear_1_7" x1="292.717" y1="196.015" x2="292.717" y2="237.827" gradientUnits="userSpaceOnUse">
<stop stop-color="white"/>
<stop offset="1" stop-color="#F9F9F9"/>
</linearGradient>
<linearGradient id="paint19_linear_1_7" x1="247.105" y1="204.16" x2="247.105" y2="245.972" gradientUnits="userSpaceOnUse">
<stop stop-color="white"/>
<stop offset="1" stop-color="#F9F9F9"/>
</linearGradient>
<linearGradient id="paint20_linear_1_7" x1="269.911" y1="185.155" x2="269.911" y2="226.966" gradientUnits="userSpaceOnUse">
<stop stop-color="white"/>
<stop offset="1" stop-color="#F9F9F9"/>
</linearGradient>
<linearGradient id="paint21_linear_1_7" x1="287.015" y1="154.747" x2="287.015" y2="204.16" gradientUnits="userSpaceOnUse">
<stop stop-color="white"/>
<stop offset="1" stop-color="#F9F9F9"/>
</linearGradient>
<linearGradient id="paint22_linear_1_7" x1="321.224" y1="169.951" x2="321.224" y2="219.364" gradientUnits="userSpaceOnUse">
<stop stop-color="white"/>
<stop offset="1" stop-color="#F9F9F9"/>
</linearGradient>
<linearGradient id="paint23_linear_1_7" x1="344.031" y1="165.607" x2="344.031" y2="200.902" gradientUnits="userSpaceOnUse">
<stop stop-color="white"/>
<stop offset="1" stop-color="#F9F9F9"/>
</linearGradient>
<linearGradient id="paint24_linear_1_7" x1="370.638" y1="158.548" x2="370.638" y2="193.843" gradientUnits="userSpaceOnUse">
<stop stop-color="white"/>
<stop offset="1" stop-color="#F9F9F9"/>
</linearGradient>
<linearGradient id="paint25_linear_1_7" x1="393.444" y1="169.408" x2="393.444" y2="190.585" gradientUnits="userSpaceOnUse">
<stop stop-color="white"/>
<stop offset="1" stop-color="#F9F9F9"/>
</linearGradient>
<linearGradient id="paint26_linear_1_7" x1="288.916" y1="198.248" x2="288.916" y2="221.476" gradientUnits="userSpaceOnUse">
<stop stop-color="white"/>
<stop offset="1" stop-color="#F9F9F9"/>
</linearGradient>
<linearGradient id="paint27_linear_1_7" x1="309.821" y1="142.801" x2="309.821" y2="149.86" gradientUnits="userSpaceOnUse">
<stop stop-color="white"/>
<stop offset="1" stop-color="#F9F9F9"/>
</linearGradient>
<linearGradient id="paint28_linear_1_7" x1="193.054" y1="147.63" x2="272.31" y2="303.611" gradientUnits="userSpaceOnUse">
<stop stop-color="#1360A7"/>
<stop offset="1" stop-color="#0084FF"/>
</linearGradient>
</defs>
</svg>
