<svg width="124" height="124" viewBox="0 0 124 124" fill="none" xmlns="http://www.w3.org/2000/svg">
<path d="M80.843 63.716C81.3436 65.4334 81.6019 67.2436 81.6019 69.136C81.6019 80.059 72.713 88.915 61.7899 88.915C50.8499 88.915 41.9849 80.0592 41.9849 69.136C41.9849 67.1016 42.3019 65.1505 42.8441 63.3157V63.3488C44.1121 64.7161 45.9127 65.5838 47.9386 65.5838C49.6976 65.5838 51.2741 64.9498 52.4994 63.8579H52.4748C53.7087 64.9498 55.3182 65.5838 57.0612 65.5838C58.8704 65.5838 60.5301 64.8922 61.764 63.7159V63.7404C62.9893 64.8921 64.632 65.5837 66.4582 65.5837C68.3346 65.5837 70.0605 64.8419 71.2784 63.6326V63.6572C72.5037 64.8665 74.1965 65.5838 76.0815 65.5838C77.8992 65.5838 79.592 64.8665 80.8184 63.6914L80.8429 63.7159L80.843 63.716Z" fill="#0BFFF0" stroke="white"/>
<path d="M93.5229 16.082C95.2569 16.082 96.6479 17.48 96.6479 19.184V29.817H28.1089V19.207C28.1089 17.504 29.4999 16.113 31.2109 16.113L93.5229 16.082ZM48.2809 26.418C50.1559 26.418 51.6869 24.863 51.6869 22.98C51.6869 21.105 50.1559 19.566 48.2809 19.566C46.3979 19.566 44.8749 21.105 44.8749 22.98C44.8749 24.863 46.3979 26.418 48.2809 26.418ZM38.2419 26.418C40.1479 26.418 41.6479 24.863 41.6479 22.98C41.6479 21.105 40.1479 19.566 38.2419 19.566C36.3669 19.566 34.8359 21.105 34.8359 22.98C34.8359 24.863 36.3669 26.418 38.2419 26.418Z" fill="#911BAE" stroke="white"/>
<path d="M27.938 106.54V37.735C27.938 36.024 29.336 34.633 31.04 34.633H93.376C95.087 34.633 96.478 36.024 96.478 37.735V106.563L27.938 106.54V106.54ZM61.852 90.892C74.04 90.892 83.93 81.001 83.93 68.814C83.93 56.627 74.039 46.735 61.852 46.735C49.657 46.735 39.782 56.626 39.782 68.813C39.782 81 49.656 90.892 61.852 90.892V90.892Z" fill="#1F308A" stroke="white"/>
</svg>
